<?xml version="1.0" standalone="no"?>
<!DOCTYPE svg PUBLIC "-//W3C//DTD SVG 20010904//EN"
 "http://www.w3.org/TR/2001/REC-SVG-20010904/DTD/svg10.dtd">
<svg version="1.0" xmlns="http://www.w3.org/2000/svg"
 width="512.000000pt" height="512.000000pt" viewBox="0 0 512.000000 512.000000"
 preserveAspectRatio="xMidYMid meet">
<metadata>
Created by potrace 1.11, written by Peter Selinger 2001-2013
</metadata>
<g transform="translate(0.000000,512.000000) scale(0.100000,-0.100000)"
fill="#000000" stroke="none">
<path d="M1485 5105 c-336 -21 -704 -59 -777 -81 -17 -5 -18 -132 -18 -2479
l0 -2473 27 -6 c309 -57 1274 -86 1733 -51 630 48 1047 161 1370 373 115 76
299 260 378 379 153 232 222 463 223 745 0 361 -110 639 -345 874 -151 150
-291 236 -537 329 l-143 53 135 65 c176 85 304 171 410 277 223 222 321 481
306 810 -16 372 -200 679 -527 880 -279 171 -510 246 -915 297 -171 21 -1022
26 -1320 8z m1010 -796 c208 -26 379 -95 479 -195 102 -103 145 -201 153 -359
17 -333 -191 -556 -604 -646 -84 -18 -141 -22 -410 -26 l-313 -5 0 606 c0 333
3 606 8 607 4 0 63 6 132 13 159 17 439 19 555 5z m-85 -2029 c302 -32 499
-110 651 -260 143 -141 195 -281 186 -500 -11 -272 -142 -469 -392 -589 -179
-87 -344 -114 -685 -114 -140 0 -281 3 -312 7 l-58 7 0 730 0 729 258 0 c141
0 300 -5 352 -10z"/>
</g>
</svg>
